<svg xmlns="http://www.w3.org/2000/svg" viewBox="0 0 900 620" role="img" aria-label="Modern Dubai building facade">
  <defs>
    <linearGradient id="abg" x1="0" x2="1" y1="0" y2="1">
      <stop stop-color="#86c8f5"/>
      <stop offset=".55" stop-color="#eaf5ff"/>
      <stop offset="1" stop-color="#0b2b55"/>
    </linearGradient>
    <linearGradient id="glassA" x1="0" x2="1" y1="0" y2="1">
      <stop stop-color="#f6fbff"/>
      <stop offset=".45" stop-color="#7fc2f0"/>
      <stop offset="1" stop-color="#12345f"/>
    </linearGradient>
  </defs>
  <rect width="900" height="620" rx="10" fill="url(#abg)"/>
  <path d="M112 560V168l234-86 302 118v360z" fill="#f7fbff" opacity=".95"/>
  <path d="M346 82v478h342V216z" fill="#17375f"/>
  <path d="M144 196h156v64H144zM144 302h156v64H144zM144 408h156v64H144z" fill="url(#glassA)"/>
  <path d="M386 184h88v92h-88zM510 232h88v92h-88zM386 330h88v92h-88zM510 378h88v92h-88z" fill="#9ed8ff"/>
  <path d="M80 560h736" stroke="#0a3d86" stroke-width="18" stroke-linecap="round" opacity=".35"/>
</svg>
