<svg xmlns="http://www.w3.org/2000/svg" viewBox="0 0 1600 760" role="img" aria-label="Dubai skyline construction site with engineers and cranes">
  <defs>
    <linearGradient id="sky" x1="0" x2="0" y1="0" y2="1">
      <stop stop-color="#d9ecff"/>
      <stop offset=".45" stop-color="#f6dcc0"/>
      <stop offset="1" stop-color="#f8fbff"/>
    </linearGradient>
    <linearGradient id="navy" x1="0" x2="1">
      <stop stop-color="#06152a"/>
      <stop offset="1" stop-color="#0b3d91"/>
    </linearGradient>
    <linearGradient id="glass" x1="0" x2="1" y1="0" y2="1">
      <stop stop-color="#d8f0ff"/>
      <stop offset=".55" stop-color="#68a9db"/>
      <stop offset="1" stop-color="#153b68"/>
    </linearGradient>
  </defs>
  <rect width="1600" height="760" fill="url(#sky)"/>
  <circle cx="1080" cy="155" r="112" fill="#ffe1a8" opacity=".6"/>
  <g opacity=".55" fill="#9db7cf">
    <path d="M0 472h1600v138H0z"/>
    <path d="M706 472V248h36v224zM746 472V178h44v294zM797 472V120h34v352zM841 472V232h52v240z"/>
    <path d="M954 472V82h42v390zM1000 472V0h36v472zM1042 472V96h54v376z"/>
    <path d="M1128 472V212h60v260zM1216 472V166h42v306zM1270 472V244h72v228z"/>
    <path d="M548 472V276h46v196zM610 472V210h42v262zM1362 472V286h44v186zM1424 472V232h54v240z"/>
  </g>
  <g stroke="#c36b20" stroke-width="8" stroke-linecap="round" stroke-linejoin="round" opacity=".9">
    <path d="M1168 190h310M1396 190v282M1226 190v282"/>
    <path d="M1190 190l118 78 170-78M1226 232h170M1226 286h170M1226 342h170"/>
    <path d="M1478 190l70 40M1330 190l-92 42"/>
  </g>
  <g transform="translate(862 472)">
    <rect x="0" y="-168" width="182" height="168" fill="#1d3c5d" opacity=".9"/>
    <rect x="20" y="-142" width="28" height="40" fill="#aee2ff"/>
    <rect x="72" y="-142" width="28" height="40" fill="#aee2ff"/>
    <rect x="124" y="-142" width="28" height="40" fill="#aee2ff"/>
    <rect x="20" y="-76" width="28" height="40" fill="#aee2ff"/>
    <rect x="72" y="-76" width="28" height="40" fill="#aee2ff"/>
    <rect x="124" y="-76" width="28" height="40" fill="#aee2ff"/>
  </g>
  <g transform="translate(0 488)">
    <rect width="1600" height="272" fill="#d4dde6"/>
    <path d="M0 60h1600" stroke="#b1bfca" stroke-width="2"/>
    <path d="M70 180h650l120-98h260l148 98h282" stroke="#7b8793" stroke-width="9" fill="none" opacity=".45"/>
    <g transform="translate(270 32)">
      <rect x="0" y="92" width="212" height="94" fill="#f2f4f7" stroke="#8292a1"/>
      <rect x="20" y="116" width="40" height="70" fill="url(#glass)"/>
      <rect x="86" y="116" width="40" height="70" fill="url(#glass)"/>
      <rect x="152" y="116" width="40" height="70" fill="url(#glass)"/>
      <path d="M-16 94l124-94 120 94" fill="#e9edf2" stroke="#8292a1"/>
    </g>
  </g>
  <g transform="translate(982 274)">
    <path d="M86 160c-28 58-45 141-44 240h238c-3-100-23-183-52-240z" fill="#f4c94f"/>
    <path d="M86 160h142c-16-54-30-84-68-84-42 0-58 34-74 84z" fill="#173861"/>
    <rect x="98" y="104" width="120" height="70" rx="35" fill="#fff"/>
    <path d="M98 138c18-42 96-42 120 0" fill="#f4c94f"/>
    <path d="M118 172c24 28 58 28 82 0" stroke="#d6b08a" stroke-width="12" stroke-linecap="round"/>
    <path d="M114 108h88" stroke="#0b3d91" stroke-width="8" stroke-linecap="round"/>
    <path d="M96 246l-82 134M230 246l92 134" stroke="#173861" stroke-width="24" stroke-linecap="round"/>
    <rect x="114" y="224" width="92" height="132" fill="#0b3d91" opacity=".24"/>
  </g>
  <g transform="translate(1212 292)">
    <path d="M76 148c-24 56-38 134-38 232h218c-4-96-20-174-48-232z" fill="#1c5fad"/>
    <path d="M76 148h132c-15-48-28-74-64-74-38 0-53 30-68 74z" fill="#173861"/>
    <rect x="88" y="96" width="108" height="64" rx="32" fill="#fff"/>
    <path d="M88 128c18-38 86-38 108 0" fill="#f4c94f"/>
    <path d="M104 158c22 25 52 25 74 0" stroke="#d6b08a" stroke-width="11" stroke-linecap="round"/>
    <path d="M102 102h80" stroke="#0b3d91" stroke-width="7" stroke-linecap="round"/>
    <path d="M86 230l-76 128M210 230l84 128" stroke="#173861" stroke-width="22" stroke-linecap="round"/>
  </g>
  <g transform="translate(900 524)">
    <path d="M0 0h282l76 112H72z" fill="#eaf4ff" stroke="#486780" stroke-width="3"/>
    <path d="M42 24h194M64 50h208M86 78h202" stroke="#0b3d91" stroke-width="4" opacity=".55"/>
  </g>
  <rect x="0" y="0" width="850" height="760" fill="url(#sky)" opacity=".18"/>
</svg>
